<svg width="99" height="48" viewBox="0 0 99 48" fill="none" xmlns="http://www.w3.org/2000/svg">
<path d="M6.06524 1.92801C1.23916 6.19361 -1.17389 19.4368 2.38535 21.8176C4.91905 23.504 8.59894 22.6608 12.8821 19.3376C15.2348 17.552 17.1652 14.4768 16.2 14.0304C15.7777 13.832 15.2348 14.0304 14.8729 14.5264C10.7104 20.28 6.00492 22.7104 3.47122 20.3792C1.35981 18.4448 2.56633 10.5584 5.82394 5.05281C7.51307 2.22561 9.2022 1.38241 10.831 2.62241C11.4343 3.06881 12.0979 3.41601 12.2788 3.41601C13.0631 3.41601 12.7011 1.97761 11.7359 1.23361C10.2277 -0.00638771 7.93535 0.291214 6.06524 1.92801Z" fill="black"/>
<path d="M32.9706 10.2112C33.5739 20.1808 33.9962 22.8096 34.9614 22.3136C35.3837 22.0656 36.2282 19.9328 36.8315 17.5024C38.0983 12.4928 38.5809 11.352 39.2445 11.352C39.8478 11.352 40.1494 12.1456 41.1146 16.1632C41.5369 17.9984 42.1402 19.288 42.5625 19.288C42.9847 19.288 43.769 17.8992 44.3722 16.1632C45.6391 12.344 47.0266 10.112 47.6902 10.6576C47.9918 10.9056 48.4141 13.1872 48.6554 15.7168C48.8967 18.1968 49.3793 20.6768 49.8016 21.1232C50.7065 22.1152 52.1543 21.52 51.5511 20.3296C51.3701 19.8832 50.9478 17.2544 50.7065 14.4768C50.1636 8.9712 49.5 7.384 47.6299 7.384C46.4837 7.384 45.2168 9.1696 43.1657 13.584C42.8038 14.328 42.5021 13.9312 41.9592 11.6992C41.1146 8.4752 40.5114 7.68161 38.8826 7.97921C37.7364 8.12801 36.7712 10.0128 35.7456 13.832C35.2027 15.8656 35.1424 15.6672 35.082 11.352C35.0217 5.9952 34.5994 4.408 33.4532 4.408C32.7896 4.408 32.7293 5.54881 32.9706 10.2112Z" fill="black"/>
<path d="M23.3185 7.92961C19.7592 11.4016 16.9842 17.7504 17.8891 20.3792C18.3717 21.6688 18.794 22.016 19.9402 22.016C21.388 22.016 23.3185 20.0816 26.938 15.0224C27.5413 14.2288 27.7223 14.5264 28.0239 17.056C28.6272 21.3216 28.9288 22.264 29.713 22.264C30.1957 22.264 30.256 21.1232 29.894 18.1472C29.6527 15.9152 29.2908 12.3936 29.0495 10.36L28.6875 6.64001L26.8174 6.49121C25.3092 6.39201 24.5853 6.64001 23.3185 7.92961ZM26.4554 10.5584C25.9125 14.328 19.337 22.1152 19.337 18.9904C19.337 17.9488 22.112 12.6912 23.9821 10.2112C25.9125 7.68161 26.8174 7.83041 26.4554 10.5584Z" fill="black"/>
<path d="M54.3261 15.6672C54.4467 32.68 54.5071 31.936 52.7576 32.6304C50.8875 33.3248 51.0082 34.9616 52.9386 34.8128C54.4467 34.664 54.9294 36.152 54.9294 41.112C54.9294 45.4272 55.4723 47.56 56.5582 47.56C57.2217 47.56 57.3424 46.3696 56.9804 40.4672L56.5582 33.3744L59.3332 32.4816C60.9016 31.9856 62.2891 31.3904 62.4701 31.1424C63.2544 30.1008 62.0478 29.8528 59.4538 30.448L56.7391 31.1424V26.232V21.3712L60.5397 19.1392C65.1245 16.4112 69.8299 12.3936 70.3728 10.6576C71.4587 6.9872 64.7022 6.39199 58.8505 9.6656C57.644 10.3104 56.5582 10.856 56.4375 10.856C56.2565 10.856 56.1359 9.9632 56.1359 8.872C56.1359 7.384 55.8946 6.888 55.1707 6.888C54.3864 6.888 54.2658 8.0288 54.3261 15.6672ZM68.2011 9.616C68.2011 11.848 65.2451 14.4272 59.3332 17.4528L56.7995 18.792L56.3772 17.056C55.6533 13.7824 57.1011 11.7984 61.5652 9.86399C64.2196 8.6736 68.2011 8.5248 68.2011 9.616Z" fill="black"/>
<path d="M92.3316 7.7808C88.9533 9.0208 86.9022 11.4016 86.9022 14.1296C86.9022 16.6096 88.0484 17.552 90.3408 17.056C93.4778 16.4112 97.1577 16.2128 97.1577 16.7088C97.1577 17.3536 94.262 19.6848 91.6077 21.1728C89.2549 22.4128 89.074 23.256 91.1854 23.256C92.6935 23.256 98.2435 18.9904 98.7261 17.5024C98.9071 16.9072 98.7261 15.9152 98.3642 15.32C97.7006 14.328 97.3386 14.2288 95.1669 14.576C88.1691 15.5184 88.712 15.568 88.712 13.8816C88.712 11.7488 91.9696 8.7728 94.081 8.9712C95.8908 9.12 97.3386 8.5248 96.856 7.8304C96.4337 7.3344 93.7191 7.2848 92.3316 7.7808Z" fill="black"/>
<path d="M72.605 13.4352C73.1479 22.5616 74.7767 24.6448 78.9392 21.52C80.2664 20.5776 81.4729 19.784 81.6539 19.784C81.8349 19.784 82.0762 20.528 82.1968 21.3712C82.3175 22.512 82.7397 23.0576 83.524 23.1568C84.4892 23.3056 84.6099 23.1568 84.1876 22.2144C83.9463 21.5696 83.5843 18.048 83.4637 14.4272C83.2224 9.61601 82.9811 7.88001 82.3778 7.88001C81.8952 7.88001 81.5332 9.16961 81.2316 11.8976C80.8093 16.064 79.5425 18.792 77.3104 20.4784C76.1039 21.3712 76.0436 21.3712 75.4403 20.0816C75.1387 19.3376 74.837 17.9984 74.837 17.1056C74.837 16.2128 74.6561 13.7824 74.4751 11.6992C74.1734 8.77281 73.8718 7.88001 73.1479 7.88001C72.3637 7.88001 72.3033 8.72321 72.605 13.4352Z" fill="black"/>
<path d="M29.4115 26.232L25.3093 27.6704L24.706 26.3808C24.0424 24.8432 22.5946 25.1408 22.8359 26.7776C22.9566 27.4224 23.1979 32.0352 23.3789 37.0448C23.7408 46.9152 23.8615 47.312 27.0587 46.1216C29.3511 45.2288 38.0381 40.4176 38.0381 39.9712C38.0381 39.128 35.8664 39.7232 33.212 41.3104C31.6435 42.2528 29.4718 43.3936 28.4462 43.7904C26.0935 44.7824 25.8522 44.3856 26.0935 40.5664L26.2745 37.9376L29.8941 36.2512C31.8848 35.3584 33.8756 34.2672 34.3582 33.92C35.625 32.8784 34.5995 32.3328 33.031 33.176C32.3071 33.5728 30.256 34.5152 28.5669 35.3088L25.3696 36.7472V33.2256V29.704L30.799 27.472C33.8153 26.232 36.2283 25.1408 36.2283 24.992C36.2283 24.3472 33.0914 24.8928 29.4115 26.232Z" fill="black"/>
<path d="M44.4326 32.2336C40.8734 35.7056 38.0984 42.0544 39.0033 44.6832C39.4859 45.9728 39.9082 46.32 41.0544 46.32C42.5022 46.32 44.4326 44.3856 48.0522 39.3264C48.6554 38.5328 48.8364 38.8304 49.1381 41.36C49.7413 45.6256 50.0429 46.568 50.8272 46.568C51.3098 46.568 51.3701 45.4272 51.0082 42.4512C50.7669 40.2192 50.4049 36.6976 50.1636 34.664L49.8016 30.944L47.9315 30.7952C46.4234 30.696 45.6995 30.944 44.4326 32.2336ZM47.5696 34.8624C47.0266 38.632 40.4511 46.4192 40.4511 43.2944C40.4511 42.2528 43.2261 36.9952 45.0962 34.5152C47.0266 31.9856 47.9315 32.1344 47.5696 34.8624Z" fill="black"/>
<path d="M69.4076 32.0848C66.0294 33.3248 63.9783 35.7056 63.9783 38.4336C63.9783 40.9136 65.1245 41.856 67.4169 41.36C70.5538 40.7152 74.2337 40.5168 74.2337 41.0128C74.2337 41.6576 71.3381 43.9888 68.6837 45.4768C66.331 46.7168 66.15 47.56 68.2614 47.56C69.7696 47.56 75.3196 43.2944 75.8022 41.8064C75.9832 41.2112 75.8022 40.2192 75.4402 39.624C74.7766 38.632 74.4147 38.5328 72.2429 38.88C65.2451 39.8224 65.7881 39.872 65.7881 38.1856C65.7881 36.0528 69.0457 33.0768 71.1571 33.2752C72.9669 33.424 74.4147 32.8288 73.9321 32.1344C73.5098 31.6384 70.7951 31.5888 69.4076 32.0848Z" fill="black"/>
</svg>
