<svg width="421" height="235" viewBox="0 0 421 235" fill="none" xmlns="http://www.w3.org/2000/svg">
<g filter="url(#filter0_d_12_24)">
<path d="M45.7609 33.84C27.4565 50.008 18.3043 100.204 31.8038 109.228C41.4136 115.62 55.3706 112.424 71.6158 99.828C80.5391 93.06 87.8609 81.404 84.2 79.712C82.5984 78.96 80.5391 79.712 79.1663 81.592C63.3788 103.4 45.5321 112.612 35.9223 103.776C27.9141 96.444 32.4902 66.552 44.8456 45.684C51.2522 34.968 57.6587 31.772 63.8364 36.472C66.1245 38.164 68.6413 39.48 69.3277 39.48C72.3022 39.48 70.9293 34.028 67.2685 31.208C61.5484 26.508 52.8538 27.636 45.7609 33.84Z" fill="white"/>
<path d="M147.808 65.236C150.096 103.024 151.697 112.988 155.358 111.108C156.96 110.168 160.163 102.084 162.451 92.872C167.256 73.884 169.086 69.56 171.603 69.56C173.891 69.56 175.035 72.568 178.696 87.796C180.298 94.752 182.586 99.64 184.188 99.64C185.789 99.64 188.764 94.376 191.052 87.796C195.857 73.32 201.119 64.86 203.636 66.928C204.78 67.868 206.382 76.516 207.297 86.104C208.212 95.504 210.042 104.904 211.644 106.596C215.076 110.356 220.567 108.1 218.279 103.588C217.593 101.896 215.991 91.932 215.076 81.404C213.017 60.536 210.5 54.52 203.407 54.52C199.06 54.52 194.255 61.288 186.476 78.02C185.103 80.84 183.959 79.336 181.899 70.876C178.696 58.656 176.408 55.648 170.23 56.776C165.883 57.34 162.222 64.484 158.333 78.96C156.273 86.668 156.045 85.916 155.816 69.56C155.587 49.256 153.985 43.24 149.638 43.24C147.121 43.24 146.892 47.564 147.808 65.236Z" fill="white"/>
<path d="M111.199 56.588C97.6994 69.748 87.1744 93.812 90.6065 103.776C92.4369 108.664 94.0386 109.98 98.3859 109.98C103.877 109.98 111.199 102.648 124.927 83.472C127.215 80.464 127.902 81.592 129.046 91.18C131.334 107.348 132.478 110.92 135.452 110.92C137.283 110.92 137.511 106.596 136.139 95.316C135.223 86.856 133.851 73.508 132.935 65.8L131.562 51.7L124.47 51.136C118.749 50.76 116.004 51.7 111.199 56.588ZM123.097 66.552C121.037 80.84 96.0978 110.356 96.0978 98.512C96.0978 94.564 106.623 74.636 113.716 65.236C121.037 55.648 124.47 56.212 123.097 66.552Z" fill="white"/>
<path d="M228.804 85.916C229.262 150.4 229.491 147.58 222.855 150.212C215.762 152.844 216.22 159.048 223.542 158.484C229.262 157.92 231.092 163.56 231.092 182.36C231.092 198.716 233.152 206.8 237.27 206.8C239.787 206.8 240.245 202.288 238.872 179.916L237.27 153.032L247.795 149.648C253.744 147.768 259.007 145.512 259.693 144.572C262.667 140.624 258.091 139.684 248.253 141.94L237.956 144.572V125.96V107.536L252.371 99.076C269.76 88.736 287.607 73.508 289.666 66.928C293.785 53.016 268.159 50.76 245.965 63.168C241.389 65.612 237.27 67.68 236.812 67.68C236.126 67.68 235.668 64.296 235.668 60.16C235.668 54.52 234.753 52.64 232.008 52.64C229.033 52.64 228.576 56.964 228.804 85.916ZM281.429 62.98C281.429 71.44 270.218 81.216 247.795 92.684L238.185 97.76L236.584 91.18C233.838 78.772 239.329 71.252 256.261 63.92C266.328 59.408 281.429 58.844 281.429 62.98Z" fill="white"/>
<path d="M372.951 56.024C360.138 60.724 352.359 69.748 352.359 80.088C352.359 89.488 356.706 93.06 365.401 91.18C377.298 88.736 391.255 87.984 391.255 89.864C391.255 92.308 380.273 101.144 370.205 106.784C361.282 111.484 360.596 114.68 368.604 114.68C374.324 114.68 395.374 98.512 397.204 92.872C397.891 90.616 397.204 86.856 395.832 84.6C393.315 80.84 391.942 80.464 383.705 81.78C357.164 85.352 359.223 85.54 359.223 79.148C359.223 71.064 371.578 59.784 379.586 60.536C386.451 61.1 391.942 58.844 390.111 56.212C388.51 54.332 378.214 54.144 372.951 56.024Z" fill="white"/>
<path d="M298.132 77.456C300.191 112.048 306.369 119.944 322.157 108.1C327.19 104.528 331.766 101.52 332.453 101.52C333.139 101.52 334.054 104.34 334.512 107.536C334.97 111.86 336.571 113.928 339.546 114.304C343.207 114.868 343.664 114.304 342.063 110.732C341.147 108.288 339.774 94.94 339.317 81.216C338.402 62.98 337.486 56.4 335.198 56.4C333.368 56.4 331.995 61.288 330.851 71.628C329.249 87.42 324.445 97.76 315.979 104.152C311.403 107.536 311.174 107.536 308.886 102.648C307.742 99.828 306.598 94.752 306.598 91.368C306.598 87.984 305.911 78.772 305.225 70.876C304.081 59.784 302.937 56.4 300.191 56.4C297.217 56.4 296.988 59.596 298.132 77.456Z" fill="white"/>
<path d="M134.308 125.96L118.749 131.412L116.461 126.524C113.945 120.696 108.453 121.824 109.368 128.028C109.826 130.472 110.741 147.956 111.428 166.944C112.801 204.356 113.258 205.86 125.385 201.348C134.079 197.964 167.027 179.728 167.027 178.036C167.027 174.84 158.79 177.096 148.723 183.112C142.774 186.684 134.537 191.008 130.647 192.512C121.724 196.272 120.809 194.768 121.724 180.292L122.41 170.328L136.139 163.936C143.689 160.552 151.24 156.416 153.07 155.1C157.875 151.152 153.985 149.084 148.036 152.28C145.291 153.784 137.511 157.356 131.105 160.364L118.978 165.816V152.468V139.12L139.571 130.66C151.011 125.96 160.163 121.824 160.163 121.26C160.163 118.816 148.265 120.884 134.308 125.96Z" fill="white"/>
<path d="M191.28 148.708C177.781 161.868 167.256 185.932 170.688 195.896C172.518 200.784 174.12 202.1 178.467 202.1C183.959 202.1 191.28 194.768 205.009 175.592C207.297 172.584 207.983 173.712 209.127 183.3C211.415 199.468 212.559 203.04 215.534 203.04C217.364 203.04 217.593 198.716 216.22 187.436C215.305 178.976 213.932 165.628 213.017 157.92L211.644 143.82L204.551 143.256C198.831 142.88 196.085 143.82 191.28 148.708ZM203.178 158.672C201.119 172.96 176.179 202.476 176.179 190.632C176.179 186.684 186.704 166.756 193.797 157.356C201.119 147.768 204.551 148.332 203.178 158.672Z" fill="white"/>
<path d="M286.005 148.144C273.192 152.844 265.413 161.868 265.413 172.208C265.413 181.608 269.76 185.18 278.455 183.3C290.353 180.856 304.31 180.104 304.31 181.984C304.31 184.428 293.327 193.264 283.26 198.904C274.336 203.604 273.65 206.8 281.658 206.8C287.378 206.8 308.428 190.632 310.259 184.992C310.945 182.736 310.259 178.976 308.886 176.72C306.369 172.96 304.996 172.584 296.759 173.9C270.218 177.472 272.277 177.66 272.277 171.268C272.277 163.184 284.633 151.904 292.641 152.656C299.505 153.22 304.996 150.964 303.166 148.332C301.564 146.452 291.268 146.264 286.005 148.144Z" fill="white"/>
</g>
<defs>
<filter id="filter0_d_12_24" x="0" y="0" width="430" height="244" filterUnits="userSpaceOnUse" color-interpolation-filters="sRGB">
<feFlood flood-opacity="0" result="BackgroundImageFix"/>
<feColorMatrix in="SourceAlpha" type="matrix" values="0 0 0 0 0 0 0 0 0 0 0 0 0 0 0 0 0 0 127 0" result="hardAlpha"/>
<feOffset dx="5" dy="5"/>
<feGaussianBlur stdDeviation="2"/>
<feColorMatrix type="matrix" values="0 0 0 0 0.203922 0 0 0 0 0.219608 0 0 0 0 0.231373 0 0 0 1 0"/>
<feBlend mode="normal" in2="BackgroundImageFix" result="effect1_dropShadow_12_24"/>
<feBlend mode="normal" in="SourceGraphic" in2="effect1_dropShadow_12_24" result="shape"/>
</filter>
</defs>
</svg>
