<svg width="291" height="243" viewBox="0 0 291 243" fill="none" xmlns="http://www.w3.org/2000/svg">
<path d="M46.9818 21.0267C17.6873 50.3534 0 107.347 0 173.193C0 218.013 1.10545 222.993 13.2655 232.953C32.0582 247.893 55.2727 246.233 83.4618 226.313C108.887 208.607 140.945 170.427 140.945 156.593C140.945 141.1 125.469 150.507 108.887 177.067C82.3564 219.673 43.1127 238.487 22.6618 218.013C-2.21091 193.667 26.5309 58.6534 63.0109 25.4534C73.5127 16.0467 75.7236 15.4934 84.5673 23.24C101.149 37.6267 107.782 39.84 107.782 30.9867C107.782 19.3667 87.8836 3.05176e-05 76.8291 3.05176e-05C71.8545 3.05176e-05 58.5891 9.40669 46.9818 21.0267Z" fill="black"/>
<path d="M243.2 7.7467C231.04 11.62 212.8 18.8134 202.851 24.3467C192.349 29.88 183.505 33.2 182.4 32.0934C181.847 30.9867 177.978 24.3467 174.109 17.1534C168.582 6.0867 166.371 5.53337 159.738 11.62C154.211 17.7067 153.658 24.9 158.08 43.7134C160.844 57.5467 163.607 105.687 164.16 151.06C164.713 240.7 166.924 245.68 195.113 232.953C227.724 218.567 295.709 169.32 290.182 163.787C286.865 160.467 269.178 169.32 241.542 187.027C217.775 203.073 195.113 215.8 191.796 215.8C187.375 215.8 185.164 204.733 185.164 183.707C185.164 147.74 189.033 141.653 227.171 122.84C249.833 111.22 266.415 96.28 261.44 90.7467C259.782 89.0867 243.2 96.8334 224.96 107.9C206.72 118.413 189.033 127.267 185.716 127.267C181.847 127.267 179.636 113.433 179.636 91.3V55.3334L226.618 32.0934C252.596 19.3667 273.6 6.64003 273.6 4.4267C273.6 -1.10663 270.284 -0.553299 243.2 7.7467Z" fill="black"/>
</svg>
